<svg version="1.2" baseProfile="tiny-ps" xmlns="http://www.w3.org/2000/svg" viewBox="0 0 180 120" width="180" height="120">
	<title>10-svg</title>
	<style>
		tspan { white-space:pre }
		.shp0 { fill: none;stroke: #ff8a50;stroke-linecap:round;stroke-linejoin:round;stroke-width: 6.437 } 
		.shp1 { fill: #ff8a50;stroke: #952bb9;stroke-linecap:round;stroke-linejoin:round;stroke-width: 6.437 } 
		.shp2 { fill: none;stroke: #952bb9;stroke-linecap:round;stroke-linejoin:round;stroke-width: 6.437 } 
		.shp3 { fill: none;stroke: #592acb;stroke-linecap:round;stroke-linejoin:round;stroke-width: 6.437 } 
	</style>
	<g >
		<path class="shp0" d="M5.14 81.58L174.86 38.42" />
		<g >
			<g >
				<path class="shp1" d="M21.38 32.42C12.49 32.42 5.3 28.09 5.3 22.74C5.3 17.39 12.49 13.06 21.38 13.06C30.26 13.06 37.45 17.39 37.45 22.74C37.45 28.09 30.26 32.42 21.38 32.42Z" />
				<path class="shp2" d="M37.93 22.74L90.16 22.74" />
			</g>
			<g >
				<path class="shp1" d="M157.18 106.94C148.29 106.94 141.11 102.61 141.11 97.26C141.11 91.91 148.29 87.58 157.18 87.58C166.07 87.58 173.25 91.91 173.25 97.26C173.25 102.61 166.07 106.94 157.18 106.94Z" />
				<path class="shp2" d="M140.63 97.26L88.39 97.26" />
			</g>
		</g>
		<g >
			<path class="shp3" d="M174.86 2.71L174.86 16.84M5.14 103.16L5.14 117.29M174.86 9.48C155.25 11.13 135.8 11.81 114.11 25.26C73.77 50.23 106.39 69.29 66.21 94.26C44.52 107.71 24.91 108.39 5.14 110.03" />
		</g>
	</g>
</svg>