<svg version="1.2" baseProfile="tiny-ps" xmlns="http://www.w3.org/2000/svg" viewBox="0 0 180 120" width="180" height="120">
	<title>2-svg</title>
	<style>
		tspan { white-space:pre }
		.shp0 { fill: none;stroke: #592acb;stroke-linecap:round;stroke-linejoin:round;stroke-width: 4.955 } 
		.shp1 { fill: none;stroke: #952bb9;stroke-linecap:round;stroke-linejoin:round;stroke-width: 4.955 } 
	</style>
	<g id="Layer">
		<path id="Layer" class="shp0" d="M25.04 40.36L43.22 40.36L43.22 18.22M73.69 23.24L86.52 38.95L99.36 23.24" />
		<path id="Layer" class="shp1" d="M2.41 92.07L177.59 92.07M2.41 116.84L144.53 116.84" />
		<path id="Layer" class="shp0" d="M2.41 59.78L17.55 59.78M67.54 59.78L82.78 59.78M90.27 59.78L105.5 59.78M121.19 59.78L136.43 59.78M144 59.78L159.15 59.78M5.7 34.04L21.83 14.18L43.22 40.47M63.71 3.16L86.52 3.16L86.52 37.64M157.99 35.78L170.82 20.07L157.99 4.36" />
		<path id="Layer" class="shp0" d="M169.66 20.07L141.5 20.07L141.5 48" />
	</g>
</svg>