<svg version="1.2" baseProfile="tiny-ps" xmlns="http://www.w3.org/2000/svg" viewBox="0 0 180 120" width="180" height="120">
	<title>6-svg</title>
	<style>
		tspan { white-space:pre }
		.shp0 { fill: #ff8a50 } 
		.shp1 { fill: none;stroke: #592acb;stroke-linecap:round;stroke-linejoin:round;stroke-width: 4.739 } 
		.shp2 { fill: #592acb } 
		.shp3 { fill: #ffffff } 
		.shp4 { fill: none } 
		.shp5 { fill: none;stroke: #952bb9;stroke-linecap:round;stroke-linejoin:round;stroke-width: 4.739 } 
		.shp6 { fill: #ff8a50;stroke: #592acb;stroke-linecap:round;stroke-linejoin:round;stroke-width: 4.739 } 
	</style>
	<g >
		<path fill-rule="evenodd" class="shp0" d="M1.86 1.94L150.31 1.94L150.31 28.06L1.86 28.06L1.86 1.94Z" />
		<path class="shp1" d="M121.73 106.35L11.51 106.35C6.49 106.35 2.41 102.1 2.41 96.87L2.41 2.52L149.57 2.52L149.57 19.35M2.41 28.16L120.62 28.16" />
		<g >
			<path class="shp2" d="M14.2 18.48C12.55 18.48 11.23 17.1 11.23 15.39C11.23 13.67 12.55 12.29 14.2 12.29C15.84 12.29 17.16 13.67 17.16 15.39C17.16 17.1 15.84 18.48 14.2 18.48Z" />
			<path class="shp2" d="M26.07 18.48C24.43 18.48 23.1 17.1 23.1 15.39C23.1 13.67 24.43 12.29 26.07 12.29C27.71 12.29 29.04 13.67 29.04 15.39C29.04 17.1 27.71 18.48 26.07 18.48Z" />
			<path class="shp2" d="M37.86 18.48C36.21 18.48 34.89 17.1 34.89 15.39C34.89 13.67 36.21 12.29 37.86 12.29C39.5 12.29 40.82 13.67 40.82 15.39C40.82 17.1 39.5 18.48 37.86 18.48Z" />
		</g>
		<path fill-rule="evenodd" class="shp3" d="M174.43 117.48L124.98 117.48C123.22 117.48 121.82 115.94 121.82 114.19L121.82 22.65C121.82 20.81 123.31 19.35 124.98 19.35L174.43 19.35C176.2 19.35 177.59 20.9 177.59 22.65L177.59 114.1C177.59 115.94 176.2 117.48 174.43 117.48Z" />
		<path class="shp4" d="M121.55 88.06L178.14 88.06L178.14 117.1L121.55 117.1L121.55 88.06Z" />
		<path class="shp1" d="M174.43 117.48L124.98 117.48C123.22 117.48 121.82 115.94 121.82 114.19L121.82 22.65C121.82 20.81 123.31 19.35 124.98 19.35L174.43 19.35C176.2 19.35 177.59 20.9 177.59 22.65L177.59 114.1C177.59 115.94 176.2 117.48 174.43 117.48Z" />
		<path class="shp5" d="M19.58 43.06L62.91 43.06M75.62 43.06L106.61 43.06M19.58 59.42L92.23 59.42M19.58 77.61L100.86 77.61" />
		<path class="shp6" d="M149.57 108.29C146.59 108.29 144.19 105.78 144.19 102.68C144.19 99.57 146.59 97.06 149.57 97.06C152.54 97.06 154.95 99.57 154.95 102.68C154.95 105.78 152.54 108.29 149.57 108.29Z" />
		<g >
			<path class="shp5" d="M130.82 36.77L148.73 36.77M156.53 36.77L168.22 36.77M130.82 53.42L160.42 53.42M130.82 71.32L168.31 71.32" />
		</g>
		<path class="shp1" d="M124.79 88.74L176.75 88.74" />
	</g>
</svg>