<svg version="1.2" baseProfile="tiny-ps" xmlns="http://www.w3.org/2000/svg" viewBox="0 0 180 120" width="180" height="120">
	<title>7-svg</title>
	<style>
		tspan { white-space:pre }
		.shp0 { fill: #ff8a50 } 
		.shp1 { fill: none;stroke: #592acb;stroke-linecap:round;stroke-linejoin:round;stroke-width: 4.647 } 
		.shp2 { fill: #592acb } 
		.shp3 { fill: none;stroke: #952bb9;stroke-linecap:round;stroke-linejoin:round;stroke-width: 4.647 } 
		.shp4 { fill: none;stroke: #20123a;stroke-linecap:round;stroke-linejoin:round;stroke-width: 4.647 } 
	</style>
	<g >
		<g >
			<path fill-rule="evenodd" class="shp0" d="M1.78 1.94L159.5 1.94L159.5 30L1.78 30L1.78 1.94Z" />
			<path class="shp1" d="M94.54 117.39L12.3 117.39C6.95 117.39 2.58 112.65 2.58 106.84L2.58 2.61L158.97 2.61L158.97 54.39M2.58 30.87L158.97 30.87" />
			<g >
				<path class="shp2" d="M15.15 20.13C13.42 20.13 12.03 18.62 12.03 16.74C12.03 14.87 13.42 13.35 15.15 13.35C16.87 13.35 18.27 14.87 18.27 16.74C18.27 18.62 16.87 20.13 15.15 20.13Z" />
				<path class="shp2" d="M27.71 20.13C25.99 20.13 24.59 18.62 24.59 16.74C24.59 14.87 25.99 13.35 27.71 13.35C29.44 13.35 30.83 14.87 30.83 16.74C30.83 18.62 29.44 20.13 27.71 20.13Z" />
				<path class="shp2" d="M40.28 20.13C38.55 20.13 37.16 18.62 37.16 16.74C37.16 14.87 38.55 13.35 40.28 13.35C42 13.35 43.4 14.87 43.4 16.74C43.4 18.62 42 20.13 40.28 20.13Z" />
			</g>
			<path class="shp1" d="M95.44 117.39C91.6 110.32 89.38 102 89.38 93.19C89.38 66.77 109.07 45.39 133.4 45.39C157.72 45.39 177.42 66.77 177.42 93.19C177.42 101.9 175.28 110.03 171.53 117.1C171.45 117.19 171.45 117.29 171.36 117.39L95.44 117.39L95.44 117.39ZM20.94 47.32L66.83 47.32M20.94 65.42L80.38 65.42M20.94 85.65L66.03 85.65" />
			<path class="shp3" d="M133.4 105.87C126.99 105.87 121.81 100.25 121.81 93.29C121.81 86.33 126.99 80.71 133.4 80.71C139.8 80.71 144.98 86.33 144.98 93.29C144.98 100.25 139.8 105.87 133.4 105.87Z" />
		</g>
		<path class="shp4" d="M133.4 61.94L133.4 70.74" />
		<path class="shp3" d="M112.99 71.13L118.69 77.32M104.52 93.29L112.63 93.29M153.8 71.13L133.4 93.29M133.4 61.94L133.4 70.74" />
		<path class="shp1" d="M74.5 47.32L93.83 47.32" />
	</g>
</svg>