<svg version="1.2" baseProfile="tiny-ps" xmlns="http://www.w3.org/2000/svg" viewBox="0 0 180 120" width="180" height="120">
	<title>9-svg</title>
	<style>
		tspan { white-space:pre }
		.shp0 { fill: none;stroke: #592acb;stroke-linecap:round;stroke-linejoin:round;stroke-width: 5.991 } 
		.shp1 { fill: #ff8a50;stroke: #952bb9;stroke-linecap:round;stroke-linejoin:round;stroke-width: 5.991 } 
	</style>
	<g >
		<path class="shp0" d="M138.57 47.71L138.57 117.29L3.71 117.29L3.71 25.94L113.29 25.94" />
		<path class="shp0" d="M103 71.81L103 93.19L39.29 93.19L39.29 50.03L77.43 50.03" />
		<path fill-rule="evenodd" class="shp1" d="M153.29 37.84L110.29 66.97L98.71 74.81L67.43 79.26C65 79.65 62.86 78.19 63.29 76.45L69.43 55.45L82.86 46.45L124.43 18.29" />
		<path class="shp0" d="M113.29 10.84L164.29 45.29M131 22.84L158.57 4.16C161.43 2.23 166.29 2.23 169.14 4.16L174 7.45C176.86 9.39 176.86 12.68 174 14.61L146.43 33.29" />
	</g>
</svg>